<svg width="1200" height="630" viewBox="0 0 1200 630" fill="none" xmlns="http://www.w3.org/2000/svg">
  <!-- Background -->
  <rect width="1200" height="630" fill="#0D1B2A"/>

  <!-- Subtle dot pattern -->
  <pattern id="dots" x="0" y="0" width="40" height="40" patternUnits="userSpaceOnUse">
    <circle cx="2" cy="2" r="1.5" fill="#ffffff" opacity="0.04"/>
  </pattern>
  <rect width="1200" height="630" fill="url(#dots)"/>

  <!-- Yellow accent bar top -->
  <rect x="0" y="0" width="1200" height="6" fill="#FFD400"/>

  <!-- Ylopage Logo — YLO part (yellow) scaled and centered -->
  <g transform="translate(370, 160) scale(1.8)">
    <path d="M27.6293 90.5074V54.4284L0 1.23983H23.4468H67.5169L50.3157 48.4773H32.9523L66.0314 1.23983H87.4504L59.8211 54.4284V90.5074H27.6293Z" fill="#FFD400"/>
    <path d="M95.1706 90.5074V1.23983H127.362V90.5074H95.1706ZM104.296 90.5074V57.28H158.54V90.5074H104.296Z" fill="#FFD400"/>
    <path d="M206.981 91.7473C200.221 91.7473 193.969 90.6314 188.223 88.3997C182.562 86.168 177.619 83.0271 173.395 78.977C169.255 74.8443 166.002 69.9676 163.636 64.3471C161.354 58.6439 160.214 52.3621 160.214 45.5017C160.214 36.4096 162.199 28.4747 166.171 21.697C170.142 14.8366 175.634 9.50535 182.647 5.70321C189.744 1.90107 197.813 0 206.854 0C216.064 0 224.175 1.90107 231.188 5.70321C238.201 9.50535 243.693 14.8366 247.664 21.697C251.72 28.5574 253.748 36.5336 253.748 45.6257C253.748 52.4034 252.565 58.6439 250.199 64.3471C247.918 69.9676 244.665 74.8443 240.44 78.977C236.3 83.0271 231.357 86.168 225.612 88.3997C219.95 90.6314 213.74 91.7473 206.981 91.7473Z" fill="#FFD400"/>

    <!-- PAGE part (white) -->
    <path d="M0 179.753V110.552H33.6015C38.8415 110.552 43.3283 111.449 47.0618 113.243C50.8608 115.037 53.7755 117.536 55.806 120.74C57.902 123.943 58.95 127.692 58.95 131.985C58.95 136.278 57.902 140.058 55.806 143.326C53.71 146.594 50.7625 149.157 46.9635 151.015C43.23 152.809 38.776 153.706 33.6015 153.706H11.9865V142.365H32.8155C36.287 142.365 38.9725 141.436 40.872 139.578C42.837 137.656 43.8195 135.157 43.8195 132.081C43.8195 129.005 42.837 126.538 40.872 124.68C38.9725 122.822 36.287 121.893 32.8155 121.893H15.1305V179.753H0Z" fill="white"/>
    <path d="M55.3017 179.753L80.6502 110.552H93.6192L70.334 179.753H55.3017ZM107.178 179.753L83.9907 110.552H97.5492L122.898 179.753H107.178ZM68.6637 152.937H108.357V164.471H68.6637V152.937Z" fill="white"/>
    <path d="M160.38 180.714C152.717 180.714 146.134 179.24 140.632 176.293C135.13 173.345 130.872 169.213 127.859 163.894C124.912 158.576 123.438 152.361 123.438 145.248C123.438 138.2 124.945 132.017 127.958 126.699C130.971 121.316 135.13 117.119 140.435 114.108C145.806 111.096 152.029 109.591 159.103 109.591C164.932 109.591 170.14 110.616 174.725 112.666C179.375 114.717 183.109 117.536 185.925 121.124C188.807 124.648 190.51 128.749 191.034 133.427H175.904C175.249 129.646 173.415 126.699 170.402 124.584C167.454 122.406 163.753 121.316 159.299 121.316C155.173 121.316 151.57 122.277 148.492 124.2C145.413 126.058 143.023 128.749 141.32 132.273C139.617 135.797 138.765 140.026 138.765 144.96C138.765 150.086 139.617 154.475 141.32 158.128C143.023 161.716 145.512 164.471 148.787 166.393C152.127 168.251 156.221 169.181 161.068 169.181C164.998 169.181 168.338 168.7 171.089 167.739C173.84 166.778 175.936 165.432 177.377 163.702L191.722 169.277C187.923 172.993 183.502 175.844 178.458 177.831C173.48 179.753 167.454 180.714 160.38 180.714ZM176.591 169.277V150.246L179.637 153.226H160.97V141.884H191.722V169.277H176.591Z" fill="white"/>
    <path d="M200.338 179.753V110.552H215.468V179.753H200.338ZM207.412 179.753V168.412H253V179.753H207.412ZM207.412 149.958V138.809H249.561V149.958H207.412ZM207.412 121.893V110.552H251.821V121.893H207.412Z" fill="white"/>
  </g>

  <!-- Tagline -->
  <text x="600" y="520" font-family="'Helvetica Neue', Arial, sans-serif" font-size="24" font-weight="400" fill="#ffffff" opacity="0.5" text-anchor="middle" letter-spacing="2">Find Trusted Local Service Professionals in One Place</text>
</svg>
